<svg xmlns="http://www.w3.org/2000/svg" xmlns:xlink="http://www.w3.org/1999/xlink" width="500" zoomAndPan="magnify" viewBox="0 0 375 374.999991" height="500" preserveAspectRatio="xMidYMid meet" version="1.0"><defs><g/><clipPath id="9b66d449cf"><path d="M 92.113281 90.816406 L 279.613281 90.816406 L 279.613281 278 L 92.113281 278 Z M 92.113281 90.816406 " clip-rule="nonzero"/></clipPath></defs><g clip-path="url(#9b66d449cf)"><path fill="#ffffff" d="M 185.699219 277.988281 C 133.996094 277.988281 92.113281 235.816406 92.113281 184.402344 C 92.113281 132.988281 133.996094 90.816406 185.699219 90.816406 C 237.402344 90.816406 279.285156 132.699219 279.285156 184.402344 C 279.285156 236.105469 237.113281 277.988281 185.699219 277.988281 Z M 185.699219 96.59375 C 137.175781 96.59375 97.890625 135.875 97.890625 184.402344 C 97.890625 232.929688 137.175781 272.210938 185.699219 272.210938 C 234.226562 272.210938 273.507812 232.929688 273.507812 184.402344 C 273.507812 135.875 233.9375 96.59375 185.699219 96.59375 Z M 185.699219 96.59375 " fill-opacity="1" fill-rule="nonzero"/></g><path stroke-linecap="butt" transform="matrix(1.465975, 0, 0, 1.465975, -16.82742, 105.223851)" fill="none" stroke-linejoin="miter" d="M 58.639557 81.701409 L 58.639557 91.994791 L 56.763672 91.994791 C 53.254383 91.994791 47.448201 90.20151 49.483962 86.609618 C 50.560464 84.493918 55.628549 82.359567 58.639557 81.701409 Z M 62.151511 91.517826 L 62.409978 84.075575 C 62.649792 81.38432 61.493352 80.963312 64.125985 80.566286 C 67.795151 79.985401 70.728885 79.668313 73.681271 79.668313 C 75.874244 79.668313 78.168472 79.828189 80.862391 80.246533 C 82.418522 80.486347 84.454283 81.064567 86.010414 81.064567 C 84.214468 83.577293 67.558001 91.517826 62.151511 91.517826 Z M 89.359827 78.930216 C 87.984889 78.930216 87.166855 78.690401 86.010414 78.431934 C 81.200796 77.6139 77.193225 77.13427 72.863236 77.13427 C 70.409132 77.13427 67.87509 77.294146 65.023958 77.71249 C 63.944792 77.872367 63.307951 78.032243 62.889607 78.032243 C 61.671881 78.032243 63.049484 76.396173 62.969545 67.499046 L 64.125985 50.421571 C 64.842765 45.017745 65.183835 40.029598 66.161746 34.063539 C 67.216931 27.282111 68.274781 22.395219 69.511159 15.850941 C 70.089379 12.818616 70.329194 13.159686 75.477217 10.865458 L 83.636248 8.011663 C 88.064828 6.695346 93.05031 5.717435 98.019805 5.717435 C 101.630349 5.717435 105.299515 6.215717 108.651592 7.673257 C 125.806341 14.793091 121.319141 38.971748 113.876889 51.879111 C 112.083608 54.911436 109.946592 58.420725 107.753619 61.274521 C 107.255337 61.852741 107.015523 62.092555 106.597179 62.670775 C 105.219577 64.466722 99.65321 70.66993 98.019805 71.986247 C 97.380299 72.465876 97.20177 72.564467 96.562264 73.124034 L 92.47209 76.635988 C 92.133685 76.894455 89.359827 78.930216 89.359827 78.930216 Z M 71.147229 9.229389 C 71.147229 7.851786 70.907414 8.091601 69.830912 7.513381 C 67.87509 8.011663 67.795151 9.567794 67.057055 11.102609 C 66.660028 12.261713 65.023958 12.898555 63.387889 13.817845 C 58.719495 16.668976 54.469445 20.100991 50.381935 23.690219 C 43.699097 30.394374 39.350456 34.881574 33.962618 42.981984 C 30.213514 48.527034 24.567209 59.081548 24.567209 66.502482 C 24.567209 70.931062 27.519595 72.644405 29.315541 72.644405 C 30.213514 72.644405 30.770417 72.226061 30.610541 71.487965 C 30.213514 69.61208 27.101251 71.82637 27.101251 66.502482 C 27.101251 56.78732 37.812977 41.425852 44.517132 33.746451 L 49.902306 28.020207 C 53.254383 24.66813 61.991634 17.886702 65.740738 16.010817 L 62.809669 30.394374 C 61.831758 36.437705 59.617468 55.569594 59.697406 62.012617 C 59.697406 64.626598 59.137838 67.738861 59.137838 70.350177 C 59.137838 73.203973 58.879371 75.658077 58.879371 78.690401 C 55.708487 80.326471 46.390352 81.304382 46.390352 88.405564 C 46.390352 92.652949 52.436348 94.867239 56.105514 94.867239 C 56.843611 94.867239 57.341892 94.787301 57.741584 94.787301 C 58.399742 94.787301 58.559618 95.186992 58.799433 97.241405 C 58.879371 98.539069 58.879371 99.277166 59.217777 100.414954 C 59.697406 101.811209 60.435503 102.288174 61.093661 102.288174 C 61.831758 102.288174 62.489916 101.73127 62.409978 101.15305 L 62.071572 94.608772 C 64.205924 94.528834 68.533248 93.311108 70.249256 92.652949 C 75.477217 91.019545 82.738275 87.347714 87.326731 84.31539 C 89.122677 83.097664 89.780835 82.359567 90.915959 82.359567 C 91.654055 82.359567 92.47209 82.67932 93.948283 83.417417 C 95.485762 84.235451 95.166009 84.89361 96.303797 85.631706 C 98.915113 83.83576 95.984044 81.144506 93.450001 80.566286 C 93.769754 79.508436 94.667727 79.010154 96.063982 78.032243 C 97.041893 77.214208 97.939866 76.476112 98.915113 75.658077 C 100.154156 74.680166 104.161727 70.749868 105.379453 69.215054 L 107.833557 66.502482 C 115.193206 57.842505 120.341229 49.025316 123.035149 37.495555 C 125.228121 27.860331 124.490025 16.748914 117.149029 9.389265 C 112.083608 4.241242 105.0597 2.365358 97.939866 2.365358 C 93.05031 2.365358 88.144766 3.263331 83.636248 4.579647 L 74.33943 8.091601 C 73.262928 8.491292 72.364955 9.229389 71.147229 9.229389 Z M 129.310301 65.12488 C 129.470178 64.226907 134.876668 55.391065 135.614765 54.173339 C 136.912429 51.879111 140.999939 44.857868 140.101966 41.585729 C 139.76356 40.607818 139.126719 40.288065 138.308684 40.288065 C 134.69814 40.288065 127.514355 47.629061 126.038162 49.26513 C 122.947216 52.857023 121.710838 53.675057 123.26697 56.049224 C 127.834108 56.049224 123.765251 55.15125 130.128336 48.785501 C 130.866433 48.047404 131.186186 47.549123 131.844344 46.811026 C 132.582441 46.07293 132.982132 45.833115 133.800167 45.174957 C 134.69814 44.19971 136.672615 42.643579 138.127491 42.403764 C 138.127491 45.35615 135.516174 50.32298 133.880105 53.195428 L 128.172514 62.670775 C 127.434417 63.808563 124.164943 68.476957 125.481259 69.771957 C 125.641136 69.931833 125.88095 70.033089 126.118101 70.033089 C 127.434417 70.033089 129.39024 68.215826 130.128336 67.658922 C 133.480414 64.965003 134.69814 63.888501 138.468561 61.612926 C 139.76356 60.794891 141.738035 59.398636 143.773796 59.398636 C 144.352016 60.874829 144.013611 65.284756 142.795885 66.681011 L 137.807738 70.851123 C 135.516174 73.203973 131.844344 76.316235 129.808583 78.850278 C 129.39024 79.428498 129.070487 79.668313 128.572205 79.985401 C 127.834108 80.963312 127.277205 81.701409 126.619047 82.67932 C 124.324819 85.47183 122.947216 87.925934 121.391085 91.096818 C 120.57305 93.233834 119.755016 96.903 122.20912 97.880911 C 122.528873 97.960849 122.867278 98.040788 123.26697 98.040788 C 126.696321 98.040788 131.364715 92.652949 133.160661 90.699791 L 136.014456 86.849432 C 136.512738 86.289865 136.752553 86.031398 137.149579 85.47183 C 139.603684 81.621471 141.817973 78.112181 143.773796 73.622316 C 146.80612 66.681011 144.431954 68.215826 148.602066 64.706536 C 149.079031 64.306845 149.15897 64.306845 149.73719 63.728625 C 152.271232 61.354459 157.019564 57.525417 159.215202 54.911436 C 159.87336 54.173339 159.953298 54.253277 160.030572 53.195428 C 159.553607 52.857023 159.292475 52.697146 159.055325 52.697146 C 158.815511 52.697146 158.554379 52.857023 158.077414 53.195428 L 153.329082 57.525417 C 151.533136 59.478575 148.999093 61.612926 146.886059 63.248995 C 146.886059 61.852741 147.365688 58.420725 145.329927 57.02447 C 144.751707 56.707382 144.093549 56.547505 143.533981 56.547505 C 141.897912 56.547505 140.261842 57.525417 139.126719 58.263513 L 131.764406 63.328934 C 131.266124 63.648687 131.106248 63.888501 130.626618 64.306845 C 129.888521 64.885065 130.128336 64.965003 129.310301 65.12488 Z M 122.768688 95.186992 C 122.768688 91.437888 126.299294 86.849432 128.412328 83.995637 L 130.866433 80.963312 C 132.742317 79.010154 134.21851 77.054332 136.174333 75.418262 C 137.650526 74.101946 140.661533 71.408026 142.057788 70.430115 C 141.079877 74.181884 136.331545 82.122417 134.298448 85.213363 C 132.982132 87.267776 126.198039 95.84515 123.346908 95.84515 C 123.027155 95.84515 122.768688 95.685274 122.768688 95.186992 Z M 163.057567 67.317853 C 166.886609 67.317853 169.998872 63.728625 171.954695 61.692864 C 173.271011 60.376548 178.17922 54.911436 178.17922 53.355304 C 178.17922 52.617208 177.918088 52.377393 177.601 52.377393 C 176.044869 52.377393 171.71488 58.183575 171.395127 58.580602 C 170.158749 60.136733 165.908698 64.466722 163.297382 64.466722 C 161.101745 64.466722 160.203772 59.638451 160.203772 57.184347 C 160.203772 48.865439 163.457258 45.174957 159.70549 45.174957 C 158.06942 45.174957 157.251385 48.865439 157.011571 50.581447 C 156.116262 54.751559 156.273474 60.376548 158.229297 64.06703 C 159.12727 65.604509 160.843278 67.317853 163.057567 67.317853 Z M 160.443586 34.881574 C 160.443586 36.67752 161.501436 37.495555 162.639224 37.495555 C 164.275293 37.495555 165.988636 35.699609 164.453822 32.688601 C 163.95554 31.790628 163.37732 31.452223 162.817752 31.452223 C 161.581374 31.452223 160.443586 33.008354 160.443586 34.881574 Z M 176.039539 66.681011 C 178.573582 66.681011 177.595671 63.888501 178.093953 61.772802 C 178.413706 59.819644 179.151802 58.183575 179.969837 56.78732 C 181.267501 54.671621 181.685845 54.671621 184.798107 54.671621 C 185.69608 54.671621 186.911142 54.751559 187.968991 54.751559 C 189.605061 54.751559 190.921377 54.57303 190.921377 53.435243 C 190.921377 52.377393 188.387335 52.217517 186.013169 52.217517 C 184.616914 52.217517 183.241976 52.297455 182.503879 52.297455 C 179.969837 52.297455 179.471555 53.853586 178.253829 54.671621 C 178.253829 53.595119 178.413706 53.675057 178.413706 52.53727 C 178.413706 51.719235 178.413706 50.741324 178.493644 49.923289 C 178.752111 47.629061 179.151802 46.07293 176.937512 46.07293 C 175.141566 46.07293 174.98169 54.57303 174.98169 56.049224 C 175.061628 58.103637 174.98169 60.136733 175.061628 62.092555 C 175.061628 62.670775 174.40347 66.681011 176.039539 66.681011 Z M 188.219465 58.740478 C 188.219465 61.692864 188.459279 63.070467 191.491604 63.070467 C 193.86577 63.070467 196.399812 55.391065 197.934627 54.333216 C 197.934627 57.842505 200.548608 62.092555 204.638782 62.092555 C 206.035036 62.092555 207.591168 61.612926 209.227237 60.456486 L 211.681342 58.500663 C 215.830137 54.493092 215.350508 52.457331 214.114129 52.457331 C 213.6345 52.457331 213.05628 52.697146 212.656588 53.275366 C 211.500148 54.493092 211.260334 55.231189 209.704202 56.627444 C 207.910921 58.420725 206.194913 59.398636 204.638782 59.398636 C 202.922774 59.398636 201.465233 58.103637 200.807075 55.15125 C 200.068978 52.038988 201.465233 48.367157 198.592785 48.367157 C 197.5376 48.367157 194.185523 55.311127 192.549453 57.842505 L 191.891295 58.820416 C 191.491604 59.318698 191.731418 59.00161 191.491604 59.23876 C 191.491604 56.547505 192.629391 53.435243 193.687241 51.719235 C 196.061407 47.629061 197.697477 46.493938 198.933855 46.493938 C 200.468669 46.493938 201.465233 48.367157 202.603021 48.367157 C 204.71872 48.367157 202.603021 43.72008 198.752662 43.72008 C 193.047735 43.72008 188.219465 54.093401 188.219465 58.740478 Z M 216.243151 60.376548 L 216.403028 60.376548 C 220.013572 60.136733 223.104518 48.527034 226.776348 46.07293 C 226.776348 48.527034 227.514445 51.47942 230.048488 51.47942 C 232.262777 51.47942 235.193847 47.232034 236.829916 46.07293 C 236.829916 50.821262 234.557005 58.580602 236.909854 64.54666 C 237.807827 66.920826 239.28402 67.818799 240.840152 67.818799 C 243.534071 67.818799 246.646334 65.204818 248.759368 62.092555 C 249.337588 61.274521 249.657341 60.874829 250.155623 60.216671 C 250.653905 59.398636 250.893719 58.900355 251.373349 58.183575 C 251.951569 57.285602 253.747515 54.671621 253.747515 53.675057 C 253.747515 53.11549 253.267885 52.617208 252.92948 52.617208 C 251.133534 52.617208 250.733843 54.173339 249.995746 55.311127 C 247.861395 58.820416 244.032353 64.786475 241.658187 64.786475 C 240.261932 64.786475 239.363959 62.990528 239.363959 58.002381 C 239.363959 53.435243 240.840152 44.697992 239.363959 42.981984 C 238.964267 42.483702 238.465986 42.323825 237.986356 42.323825 C 237.488074 42.323825 236.989793 42.483702 236.510163 42.723517 C 235.614855 43.221799 235.113908 43.879957 234.375812 44.697992 C 232.920936 45.992991 231.026399 48.367157 229.808673 48.527034 C 229.808673 45.913053 229.230453 42.723517 226.776348 42.723517 C 224.820526 42.723517 222.44636 46.890964 221.551051 48.447096 L 217.719344 54.911436 C 217.559468 55.071312 217.47953 55.15125 217.301001 55.311127 C 217.301001 47.072158 221.231298 43.381675 217.061186 43.381675 C 214.130117 43.381675 210.516908 60.376548 216.243151 60.376548 Z M 216.243151 60.376548 " stroke="#fffef9" stroke-width="6.128468" stroke-opacity="1" stroke-miterlimit="4"/><g fill="#ffffff" fill-opacity="1"><g transform="translate(21.585713, 203.444192)"><g><path d="M 47.554688 21.5625 L 47.554688 36.652344 L 44.800781 36.652344 C 39.648438 36.652344 31.144531 34.019531 34.140625 28.75 C 35.695312 25.632812 43.121094 22.519531 47.554688 21.5625 Z M 52.707031 35.933594 L 53.066406 25.035156 C 53.425781 21.082031 51.746094 20.484375 55.582031 19.882812 C 60.96875 19.046875 65.28125 18.566406 69.59375 18.566406 C 72.828125 18.566406 76.183594 18.804688 80.136719 19.40625 C 82.410156 19.765625 85.40625 20.601562 87.683594 20.601562 C 85.046875 24.316406 60.609375 35.933594 52.707031 35.933594 Z M 92.59375 17.488281 C 90.558594 17.488281 89.359375 17.128906 87.683594 16.769531 C 80.613281 15.570312 74.746094 14.851562 68.398438 14.851562 C 64.804688 14.851562 61.089844 15.09375 56.898438 15.691406 C 55.339844 15.929688 54.382812 16.171875 53.785156 16.171875 C 51.988281 16.171875 54.023438 13.773438 53.902344 0.71875 L 55.582031 -24.316406 C 56.660156 -32.222656 57.136719 -39.527344 58.574219 -48.273438 C 60.132812 -58.214844 61.6875 -65.402344 63.484375 -74.984375 C 64.324219 -79.417969 64.683594 -78.9375 72.230469 -82.292969 L 84.207031 -86.484375 C 90.675781 -88.402344 97.984375 -89.839844 105.289062 -89.839844 C 110.5625 -89.839844 115.953125 -89.121094 120.863281 -86.964844 C 146.019531 -76.542969 139.429688 -41.085938 128.527344 -22.160156 C 125.894531 -17.726562 122.78125 -12.578125 119.546875 -8.386719 C 118.828125 -7.546875 118.46875 -7.1875 117.867188 -6.347656 C 115.832031 -3.714844 107.6875 5.390625 105.289062 7.308594 C 104.332031 8.027344 104.09375 8.144531 103.132812 8.984375 L 97.144531 14.132812 C 96.667969 14.492188 92.59375 17.488281 92.59375 17.488281 Z M 65.882812 -84.6875 C 65.882812 -86.722656 65.523438 -86.363281 63.964844 -87.203125 C 61.089844 -86.484375 60.96875 -84.207031 59.890625 -81.933594 C 59.292969 -80.253906 56.898438 -79.296875 54.503906 -77.980469 C 47.675781 -73.789062 41.445312 -68.757812 35.457031 -63.484375 C 25.632812 -53.664062 19.285156 -47.074219 11.378906 -35.214844 C 5.871094 -27.070312 -2.394531 -11.617188 -2.394531 -0.71875 C -2.394531 5.75 1.917969 8.265625 4.550781 8.265625 C 5.871094 8.265625 6.707031 7.667969 6.46875 6.589844 C 5.871094 3.832031 1.316406 7.066406 1.316406 -0.71875 C 1.316406 -14.972656 17.007812 -37.492188 26.832031 -48.753906 L 34.738281 -57.136719 C 39.648438 -62.046875 52.464844 -71.992188 57.976562 -74.746094 L 53.664062 -53.664062 C 52.226562 -44.800781 48.992188 -16.769531 49.113281 -7.308594 C 49.113281 -3.472656 48.273438 1.078125 48.273438 4.910156 C 48.273438 9.105469 47.914062 12.695312 47.914062 17.128906 C 43.242188 19.523438 29.585938 20.960938 29.585938 31.382812 C 29.585938 37.613281 38.449219 40.847656 43.839844 40.847656 C 44.917969 40.847656 45.636719 40.726562 46.238281 40.726562 C 47.195312 40.726562 47.433594 41.324219 47.792969 44.320312 C 47.914062 46.238281 47.914062 47.316406 48.394531 48.992188 C 49.113281 51.027344 50.191406 51.746094 51.148438 51.746094 C 52.226562 51.746094 53.183594 50.910156 53.066406 50.070312 L 52.585938 40.488281 C 55.699219 40.367188 62.046875 38.570312 64.5625 37.613281 C 72.230469 35.214844 82.890625 29.828125 89.597656 25.394531 C 92.234375 23.597656 93.191406 22.519531 94.871094 22.519531 C 95.949219 22.519531 97.144531 23 99.300781 24.078125 C 101.578125 25.273438 101.097656 26.234375 102.777344 27.3125 C 106.609375 24.675781 102.296875 20.722656 98.582031 19.882812 C 99.0625 18.328125 100.378906 17.609375 102.417969 16.171875 C 103.851562 14.972656 105.171875 13.894531 106.609375 12.695312 C 108.40625 11.261719 114.273438 5.511719 116.070312 3.234375 L 119.664062 -0.71875 C 130.445312 -13.414062 137.992188 -26.351562 141.945312 -43.242188 C 145.179688 -57.375 144.101562 -73.667969 133.320312 -84.449219 C 125.894531 -91.996094 115.59375 -94.75 105.171875 -94.75 C 97.984375 -94.75 90.796875 -93.433594 84.207031 -91.515625 L 70.554688 -86.363281 C 68.996094 -85.765625 67.679688 -84.6875 65.882812 -84.6875 Z M 65.882812 -84.6875 "/></g></g></g><g fill="#ffffff" fill-opacity="1"><g transform="translate(161.362972, 203.444192)"><g><path d="M 11.378906 -2.753906 C 11.617188 -4.074219 19.523438 -17.007812 20.601562 -18.804688 C 22.519531 -22.160156 28.507812 -32.460938 27.191406 -37.253906 C 26.710938 -38.691406 25.753906 -39.167969 24.554688 -39.167969 C 19.285156 -39.167969 8.746094 -28.390625 6.589844 -25.992188 C 2.035156 -20.722656 0.238281 -19.523438 2.515625 -16.050781 C 9.222656 -16.050781 3.234375 -17.367188 12.578125 -26.710938 C 13.65625 -27.789062 14.132812 -28.507812 15.09375 -29.585938 C 16.171875 -30.664062 16.769531 -31.023438 17.96875 -31.984375 C 19.285156 -33.421875 22.160156 -35.695312 24.316406 -36.054688 C 24.316406 -31.742188 20.484375 -24.4375 18.085938 -20.242188 L 9.703125 -6.347656 C 8.625 -4.671875 3.832031 2.15625 5.75 4.074219 C 5.988281 4.3125 6.347656 4.433594 6.707031 4.433594 C 8.625 4.433594 11.5 1.796875 12.578125 0.957031 C 17.488281 -2.996094 19.285156 -4.550781 24.796875 -7.90625 C 26.710938 -9.105469 29.585938 -11.140625 32.582031 -11.140625 C 33.421875 -8.984375 32.941406 -2.515625 31.144531 -0.480469 L 23.835938 5.628906 C 20.484375 9.105469 15.09375 13.65625 12.097656 17.367188 C 11.5 18.207031 11.019531 18.566406 10.300781 19.046875 C 9.222656 20.484375 8.386719 21.5625 7.425781 23 C 4.074219 27.070312 2.035156 30.664062 -0.238281 35.335938 C -1.4375 38.449219 -2.636719 43.839844 0.957031 45.277344 C 1.4375 45.398438 1.917969 45.519531 2.515625 45.519531 C 7.546875 45.519531 14.375 37.613281 17.007812 34.738281 L 21.203125 29.109375 C 21.921875 28.269531 22.28125 27.910156 22.878906 27.070312 C 26.472656 21.441406 29.707031 16.289062 32.582031 9.703125 C 37.011719 -0.480469 33.539062 1.796875 39.648438 -3.355469 C 40.367188 -3.953125 40.488281 -3.953125 41.324219 -4.792969 C 45.039062 -8.265625 51.988281 -13.894531 55.222656 -17.726562 C 56.179688 -18.804688 56.300781 -18.6875 56.417969 -20.242188 C 55.699219 -20.722656 55.339844 -20.960938 54.980469 -20.960938 C 54.621094 -20.960938 54.261719 -20.722656 53.542969 -20.242188 L 46.597656 -13.894531 C 43.960938 -11.019531 40.246094 -7.90625 37.132812 -5.511719 C 37.132812 -7.546875 37.851562 -12.578125 34.855469 -14.613281 C 34.019531 -15.09375 33.0625 -15.332031 32.222656 -15.332031 C 29.828125 -15.332031 27.429688 -13.894531 25.753906 -12.816406 L 14.972656 -5.390625 C 14.253906 -4.910156 14.015625 -4.550781 13.296875 -3.953125 C 12.21875 -3.113281 12.578125 -2.996094 11.378906 -2.753906 Z M 1.796875 41.324219 C 1.796875 35.816406 6.949219 29.109375 10.0625 24.914062 L 13.65625 20.484375 C 16.410156 17.609375 18.566406 14.734375 21.441406 12.335938 C 23.597656 10.421875 28.03125 6.46875 30.066406 5.03125 C 28.628906 10.542969 21.679688 22.160156 18.6875 26.710938 C 16.769531 29.707031 6.828125 42.285156 2.636719 42.285156 C 2.15625 42.285156 1.796875 42.042969 1.796875 41.324219 Z M 1.796875 41.324219 "/></g></g></g><g fill="#ffffff" fill-opacity="1"><g transform="translate(212.267295, 203.444192)"><g><path d="M 9.941406 0.480469 C 15.570312 0.480469 20.125 -4.792969 23 -7.785156 C 24.914062 -9.703125 32.101562 -17.726562 32.101562 -20.003906 C 32.101562 -21.082031 31.742188 -21.441406 31.265625 -21.441406 C 28.988281 -21.441406 22.640625 -12.9375 22.160156 -12.335938 C 20.363281 -10.0625 14.132812 -3.714844 10.300781 -3.714844 C 7.066406 -3.714844 5.75 -10.78125 5.75 -14.375 C 5.75 -26.59375 10.542969 -31.984375 5.03125 -31.984375 C 2.636719 -31.984375 1.4375 -26.59375 1.078125 -24.078125 C -0.238281 -17.96875 0 -9.703125 2.875 -4.3125 C 4.191406 -2.035156 6.707031 0.480469 9.941406 0.480469 Z M 6.109375 -47.074219 C 6.109375 -44.441406 7.667969 -43.242188 9.34375 -43.242188 C 11.738281 -43.242188 14.253906 -45.878906 11.976562 -50.308594 C 11.261719 -51.628906 10.421875 -52.105469 9.582031 -52.105469 C 7.785156 -52.105469 6.109375 -49.832031 6.109375 -47.074219 Z M 6.109375 -47.074219 "/></g></g></g><g fill="#ffffff" fill-opacity="1"><g transform="translate(239.575959, 203.444192)"><g><path d="M 1.675781 -0.480469 C 5.390625 -0.480469 3.953125 -4.550781 4.671875 -7.667969 C 5.152344 -10.542969 6.230469 -12.9375 7.425781 -14.972656 C 9.34375 -18.085938 9.941406 -18.085938 14.492188 -18.085938 C 15.8125 -18.085938 17.609375 -17.96875 19.164062 -17.96875 C 21.5625 -17.96875 23.476562 -18.207031 23.476562 -19.882812 C 23.476562 -21.441406 19.765625 -21.679688 16.289062 -21.679688 C 14.253906 -21.679688 12.21875 -21.5625 11.140625 -21.5625 C 7.425781 -21.5625 6.707031 -19.285156 4.910156 -18.085938 C 4.910156 -19.644531 5.152344 -19.523438 5.152344 -21.203125 C 5.152344 -22.398438 5.152344 -23.835938 5.269531 -25.035156 C 5.628906 -28.390625 6.230469 -30.664062 2.996094 -30.664062 C 0.359375 -30.664062 0.121094 -18.207031 0.121094 -16.050781 C 0.238281 -13.054688 0.121094 -10.0625 0.238281 -7.1875 C 0.238281 -6.347656 -0.71875 -0.480469 1.675781 -0.480469 Z M 1.675781 -0.480469 "/></g></g></g><g fill="#ffffff" fill-opacity="1"><g transform="translate(259.099271, 203.444192)"><g><path d="M 0 -12.097656 C 0 -7.785156 0.359375 -5.75 4.792969 -5.75 C 8.265625 -5.75 11.976562 -17.007812 14.253906 -18.566406 C 14.253906 -13.414062 18.085938 -7.1875 24.078125 -7.1875 C 26.113281 -7.1875 28.390625 -7.90625 30.785156 -9.582031 L 34.378906 -12.457031 C 40.488281 -18.328125 39.769531 -21.320312 37.972656 -21.320312 C 37.253906 -21.320312 36.414062 -20.960938 35.816406 -20.125 C 34.140625 -18.328125 33.78125 -17.25 31.503906 -15.210938 C 28.867188 -12.578125 26.351562 -11.140625 24.078125 -11.140625 C 21.5625 -11.140625 19.40625 -13.054688 18.445312 -17.367188 C 17.367188 -21.921875 19.40625 -27.3125 15.210938 -27.3125 C 13.65625 -27.3125 8.746094 -17.128906 6.347656 -13.414062 L 5.390625 -11.976562 C 4.792969 -11.261719 5.152344 -11.738281 4.792969 -11.378906 C 4.792969 -15.332031 6.46875 -19.882812 8.027344 -22.398438 C 11.5 -28.390625 13.894531 -30.066406 15.691406 -30.066406 C 17.96875 -30.066406 19.40625 -27.3125 21.082031 -27.3125 C 24.195312 -27.3125 21.082031 -34.140625 15.453125 -34.140625 C 7.066406 -34.140625 0 -18.925781 0 -12.097656 Z M 0 -12.097656 "/></g></g></g><g fill="#ffffff" fill-opacity="1"><g transform="translate(293.833977, 203.444192)"><g><path d="M 6.347656 -9.703125 L 6.589844 -9.703125 C 11.859375 -10.0625 16.410156 -27.070312 21.800781 -30.664062 C 21.800781 -27.070312 22.878906 -22.757812 26.59375 -22.757812 C 29.828125 -22.757812 34.140625 -28.988281 36.535156 -30.664062 C 36.535156 -23.71875 33.179688 -12.335938 36.652344 -3.59375 C 37.972656 -0.121094 40.128906 1.199219 42.402344 1.199219 C 46.355469 1.199219 50.910156 -2.636719 54.023438 -7.1875 C 54.863281 -8.386719 55.339844 -8.984375 56.058594 -9.941406 C 56.777344 -11.140625 57.136719 -11.859375 57.855469 -12.9375 C 58.695312 -14.253906 61.328125 -18.085938 61.328125 -19.523438 C 61.328125 -20.363281 60.609375 -21.082031 60.132812 -21.082031 C 57.496094 -21.082031 56.898438 -18.804688 55.820312 -17.128906 C 52.707031 -11.976562 47.074219 -3.234375 43.601562 -3.234375 C 41.566406 -3.234375 40.246094 -5.871094 40.246094 -13.175781 C 40.246094 -19.882812 42.402344 -32.703125 40.246094 -35.214844 C 39.648438 -35.933594 38.929688 -36.175781 38.210938 -36.175781 C 37.492188 -36.175781 36.773438 -35.933594 36.054688 -35.574219 C 34.738281 -34.855469 34.019531 -33.898438 32.941406 -32.703125 C 30.785156 -30.785156 28.03125 -27.3125 26.234375 -27.070312 C 26.234375 -30.90625 25.394531 -35.574219 21.800781 -35.574219 C 18.925781 -35.574219 15.453125 -29.46875 14.132812 -27.191406 L 8.503906 -17.726562 C 8.265625 -17.488281 8.144531 -17.367188 7.90625 -17.128906 C 7.90625 -29.226562 13.65625 -34.617188 7.546875 -34.617188 C 3.234375 -34.617188 -2.035156 -9.703125 6.347656 -9.703125 Z M 6.347656 -9.703125 "/></g></g></g><path fill="#ffffff" d="M 265.980469 247.050781 C 264.796875 248.5625 263.570312 250.039062 262.300781 251.480469 C 261.035156 252.925781 259.726562 254.328125 258.378906 255.695312 C 257.035156 257.066406 255.648438 258.394531 254.226562 259.683594 C 252.804688 260.972656 251.347656 262.222656 249.855469 263.429688 C 248.363281 264.636719 246.835938 265.800781 245.277344 266.925781 C 243.71875 268.046875 242.128906 269.121094 240.511719 270.152344 C 238.890625 271.183594 237.246094 272.171875 235.570312 273.109375 C 233.894531 274.046875 232.195312 274.9375 230.46875 275.78125 C 228.746094 276.625 226.996094 277.417969 225.226562 278.160156 C 223.457031 278.90625 221.667969 279.597656 219.859375 280.242188 C 218.050781 280.886719 216.222656 281.476562 214.382812 282.015625 C 212.539062 282.554688 210.683594 283.042969 208.8125 283.476562 C 206.941406 283.914062 205.0625 284.296875 203.171875 284.625 C 201.277344 284.953125 199.378906 285.226562 197.472656 285.449219 C 195.566406 285.671875 193.652344 285.839844 191.734375 285.953125 C 189.820312 286.066406 187.902344 286.125 185.980469 286.132812 C 184.0625 286.136719 182.144531 286.085938 180.226562 285.984375 C 178.308594 285.882812 176.394531 285.722656 174.488281 285.511719 C 172.578125 285.300781 170.679688 285.039062 168.785156 284.71875 C 166.890625 284.402344 165.007812 284.027344 163.136719 283.605469 C 161.261719 283.179688 159.40625 282.703125 157.558594 282.171875 C 155.714844 281.644531 153.882812 281.0625 152.070312 280.429688 C 150.257812 279.796875 148.464844 279.113281 146.691406 278.378906 C 144.917969 277.644531 143.167969 276.859375 141.4375 276.027344 C 139.707031 275.191406 138 274.3125 136.320312 273.382812 C 134.640625 272.453125 132.988281 271.476562 131.363281 270.453125 C 129.738281 269.429688 128.144531 268.363281 126.582031 267.25 C 125.015625 266.136719 123.484375 264.980469 121.984375 263.78125 C 120.484375 262.582031 119.019531 261.34375 117.59375 260.058594 C 116.164062 258.777344 114.769531 257.457031 113.417969 256.097656 C 112.0625 254.734375 110.746094 253.335938 109.46875 251.902344 C 108.195312 250.46875 106.960938 248.996094 105.769531 247.492188 L 123.585938 233.367188 C 124.511719 234.539062 125.472656 235.679688 126.464844 236.796875 C 127.453125 237.910156 128.476562 238.996094 129.53125 240.054688 C 130.582031 241.109375 131.664062 242.136719 132.773438 243.132812 C 133.886719 244.128906 135.023438 245.09375 136.1875 246.027344 C 137.351562 246.957031 138.542969 247.855469 139.757812 248.722656 C 140.976562 249.585938 142.214844 250.417969 143.476562 251.210938 C 144.738281 252.007812 146.023438 252.765625 147.328125 253.488281 C 148.632812 254.210938 149.960938 254.894531 151.304688 255.542969 C 152.648438 256.1875 154.007812 256.796875 155.386719 257.367188 C 156.765625 257.9375 158.160156 258.46875 159.570312 258.960938 C 160.976562 259.453125 162.398438 259.90625 163.832031 260.316406 C 165.265625 260.730469 166.710938 261.101562 168.167969 261.429688 C 169.621094 261.761719 171.085938 262.050781 172.554688 262.296875 C 174.027344 262.542969 175.503906 262.75 176.988281 262.914062 C 178.46875 263.078125 179.957031 263.199219 181.445312 263.28125 C 182.9375 263.359375 184.425781 263.398438 185.917969 263.394531 C 187.410156 263.390625 188.902344 263.34375 190.390625 263.253906 C 191.878906 263.167969 193.367188 263.035156 194.847656 262.863281 C 196.328125 262.691406 197.804688 262.476562 199.277344 262.222656 C 200.746094 261.96875 202.207031 261.671875 203.660156 261.332031 C 205.113281 260.996094 206.554688 260.617188 207.988281 260.195312 C 209.417969 259.777344 210.839844 259.316406 212.246094 258.816406 C 213.648438 258.316406 215.039062 257.777344 216.417969 257.199219 C 217.792969 256.621094 219.148438 256.007812 220.492188 255.351562 C 221.832031 254.695312 223.152344 254.003906 224.453125 253.273438 C 225.753906 252.546875 227.035156 251.78125 228.292969 250.976562 C 229.550781 250.175781 230.785156 249.339844 231.996094 248.46875 C 233.207031 247.597656 234.394531 246.691406 235.554688 245.753906 C 236.714844 244.816406 237.847656 243.84375 238.949219 242.84375 C 240.054688 241.839844 241.132812 240.808594 242.179688 239.742188 C 243.226562 238.679688 244.242188 237.589844 245.226562 236.46875 C 246.210938 235.347656 247.164062 234.199219 248.085938 233.027344 Z M 265.980469 247.050781 " fill-opacity="1" fill-rule="nonzero"/><g fill="#ffffff" fill-opacity="1"><g transform="translate(113.299451, 247.28443)"><g><path d="M 9.296875 9.171875 L 8.09375 7.96875 L 13.84375 2.125 L 6.40625 4.71875 L 5.53125 3.859375 L 8.03125 -3.609375 L 2.265625 2.234375 L 1.03125 1.015625 L 8.75 -6.8125 L 10.3125 -5.265625 L 7.765625 2.484375 L 15.46875 -0.1875 L 17.015625 1.34375 Z M 9.296875 9.171875 "/></g></g></g><g fill="#ffffff" fill-opacity="1"><g transform="translate(135.150428, 265.74362)"><g><path d="M 8.703125 1.875 L 3.828125 -0.765625 L 1.71875 0.921875 L 0.015625 0 L 9.515625 -7.359375 L 11.1875 -6.453125 L 10.1875 5.515625 L 8.4375 4.5625 Z M 8.859375 0.09375 L 9.375 -5.171875 L 5.21875 -1.875 Z M 8.859375 0.09375 "/></g></g></g><g fill="#ffffff" fill-opacity="1"><g transform="translate(158.475487, 276.222488)"><g><path d="M 7.6875 -4.046875 L 10.25 2.4375 L 8.109375 1.921875 L 6.171875 -2.796875 L 2.34375 0.5625 L 0.234375 0.046875 L 5.4375 -4.5 L 3.046875 -10.578125 L 5.140625 -10.078125 L 6.875 -5.75 L 10.390625 -8.84375 L 12.484375 -8.34375 Z M 7.6875 -4.046875 "/></g></g></g><g fill="#ffffff" fill-opacity="1"><g transform="translate(183.159755, 280.392003)"><g><path d="M 12.734375 -0.703125 L 10.828125 -0.59375 L 7.765625 -9.015625 L 5.59375 -0.3125 L 3.6875 -0.203125 L -0.546875 -10.984375 L 1.453125 -11.09375 L 4.609375 -2.3125 L 6.75 -11.359375 L 8.578125 -11.484375 L 11.734375 -2.703125 L 13.90625 -11.78125 L 15.796875 -11.875 Z M 12.734375 -0.703125 "/></g></g></g><g fill="#ffffff" fill-opacity="1"><g transform="translate(213.226092, 276.310233)"><g><path d="M 5.65625 -11.890625 L 0 -9.890625 L 0.984375 -7.09375 L 6.046875 -8.890625 L 6.609375 -7.3125 L 1.546875 -5.515625 L 2.546875 -2.671875 L 8.375 -4.734375 L 8.9375 -3.15625 L 1.359375 -0.484375 L -2.3125 -10.859375 L 5.09375 -13.46875 Z M 5.65625 -11.890625 "/></g></g></g><g fill="#ffffff" fill-opacity="1"><g transform="translate(235.350371, 266.593768)"><g><path d="M 1.828125 -3.21875 L 5.8125 -5.828125 L 6.734375 -4.421875 L 1.203125 -0.796875 L -4.84375 -9.984375 L -3.296875 -11 Z M 1.828125 -3.21875 "/></g></g></g><g fill="#ffffff" fill-opacity="1"><g transform="translate(252.979796, 253.101997)"><g><path d="M 1.046875 -3.546875 L 4.328125 -7.015625 L 5.546875 -5.859375 L 0.984375 -1.046875 L -7 -8.609375 L -5.71875 -9.953125 Z M 1.046875 -3.546875 "/></g></g></g></svg>